<svg xmlns="http://www.w3.org/2000/svg" class="main" viewBox="0 0 240 240"><clipPath id="a"><path d="M0 16.4h80v67.2H0z"/></clipPath><path fill="#E6E6E6" d="M0 19.2h240v201.6H0z" class="background"/><path fill="none" stroke="#984EA3" stroke-width="2.667" d="m17.2 56.08 1.44 5.807 1.44 2.521 1.44 1.158 1.44-2.486 1.44.934 1.44 2.808 1.44-1.916 1.44 5.173 1.44-2.008 1.44.292 1.44-6.04 1.44-2.357 1.44 4.045 1.44.799 1.44 5.15 1.44-5.554 1.44 5.935 1.44-2.146 1.44-3.457 1.44.2 1.44 8.894 1.44 6.294 1.44 4.275 1.44 8.445" class="curve error" clip-path="url(#a)" opacity=".5" transform="matrix(3 0 0 3 0 -30)"/><path fill="none" stroke="#4DAF4A" stroke-width="2.667" d="m14.58 57.051 1.296.766 1.296 5.98 1.296-2.921 1.296-2.692 1.295-2.695 1.296-2.38 1.296 5.096 1.296-1.658 1.296-2.747 1.296-.695 1.296-2.635 1.296 3.163 1.296-1.635 1.296-5.3 1.296-3.46 1.296-.194 1.296-3.944 1.296 1.192 1.296 2.067 1.296-3.061 1.296-6.302 1.296-3.185 1.296-3.669 1.296.043 1.296-1.534 1.296 1.36 1.296-1.359 1.296-1.254 1.296.716 1.296-.877 1.296-.304 1.296 3.91 1.296-.365 1.296 2.33 1.295-1.535 1.296-1.371 1.296-.149 1.296.996 1.296-1.004 1.296 8.769 1.296-3.615 1.296.756 1.296 2.566 1.296-2.497 1.296-7.138 1.296-1.065 1.296-5.055 1.3-2" class="curve correct" clip-path="url(#a)" opacity=".5" transform="matrix(3 0 0 3 0 -30)"/><g stroke="#262626" stroke-width="2.667" class="drift interactive" tabindex="0"><path stroke-dasharray="24, 12" stroke-width="8.001" d="M43.739 141.154 193.035 97.61" class="line"/><path fill="none" stroke-width="8.001" d="m166.25 82.922 26.784 14.688-14.688 26.784" class="arrow"/></g><g stroke="#262626" class="t0z interactive" tabindex="0" transform="matrix(3 0 0 3 0 -30)"><path stroke-width="2.667" d="M0 57.051h14.58" class="line"/><circle cx="14.58" cy="57.051" r="6" fill="#262626" class="point"/></g><path stroke="#262626" stroke-width="8.001" d="M0 19.2h240M0 220.8h240" class="line"/></svg>