<svg class="main" version="1.1" xmlns="http://www.w3.org/2000/svg" viewBox="0 0 200 200">
  <rect class="background" width="200" height="200" fill="rgb(230, 230, 230)" stroke="none">
  </rect>
  <g class="plot" transform="translate(-68, 40)">
    <path class="curve-cr" fill="#e41a1c" fill-opacity="0.5" stroke="none" d="M0,149.84331141258644L2.79999999999999,148.64813028920594L5.600000000000005,147.3439866914015L8.399999999999995,145.9252492862633L11.20000000000001,144.38655405466153L14,142.7228907157798L16.79999999999999,140.92969405797885L19.600000000000005,139.0029392721035L22.399999999999995,136.93924021241025L25.20000000000001,134.73594934371386L28,132.3912579755163L30.79999999999999,129.9042952393962L33.60000000000001,127.27522413952701L36.4,124.50533290257422L39.20000000000001,121.59711977696459L42,118.55436938691466L44.79999999999999,115.38221873748472L47.60000000000001,112.08721099656162L50.4,108.67733525058574L53.20000000000001,105.16205054470163L56,101.55229267551299L58.800000000000004,97.86046240537186L61.60000000000001,94.10039400960807L64.4,90.28730334958382L67.20000000000002,86.43771498104542L70,82.56936815387412L72.8,78.7011019298595L75.60000000000001,74.85272003239844L78.4,71.0448364380811L81.20000000000002,67.29870311632551L84,63.636021710462586L86.80000000000001,60.078741322636375L89.6,56.64884490626741L92.4,53.368127074624105L95.20000000000002,50.25796639379713L98,47.33909543542417L100.8,44.63137201227266L103.60000000000001,42.153555102936515L106.40000000000002,39.92308898657985L109.2,37.955899052632276L112,36.26620262308825L114.80000000000003,34.866337927854104L117.60000000000001,33.76661410947554L120.4,32.97518480735622L123.20000000000002,32.49794748967551L126,32.33847027154154L128.8,32.49794748967551L131.6,32.97518480735622L134.40000000000003,33.766614109475555L135.99999999999997,34.35774972125893L135.99999999999997,160L0,160">
    </path>
    <path class="curve-fa" fill="#377eb8" fill-opacity="0.5" stroke="none" d="M135.99999999999997,34.35774972125893L138.79999999999995,35.63012188952263L141.59999999999997,37.197000393107814L144.39999999999995,39.0468995646914L147.2,41.16638762932656L149.99999999999997,43.54024905104522L152.79999999999995,46.151666301312616L155.59999999999997,48.98241801412881L158.39999999999995,52.01309026621425L161.19999999999996,55.223297563223156L163.99999999999997,58.59191002633523L166.79999999999995,62.097283258126126L169.59999999999997,65.71748742080317L172.39999999999995,69.43053218052953L175.2,73.21458435394277L177.99999999999997,77.0481753310166L180.79999999999995,80.91039563490271L183.6,84.78107430616885L186.39999999999998,88.64094115711995L189.19999999999996,92.47177032244367L191.99999999999994,96.2565039259121L194.79999999999995,99.97935508008311L197.59999999999997,103.62588982800406L200.4,107.18308801455197L203.2,110.63938343272689L205.99999999999997,113.9846839203621L208.79999999999995,117.21037237978823L211.59999999999997,120.30928995257989L214.39999999999998,123.27570280040307L217.2,126.10525411913L219.99999999999997,128.79490314592888L222.79999999999995,131.34285300820875L225.6,133.7484693103612L228.39999999999998,136.01219136137274L231.19999999999996,138.13543791654195L233.99999999999994,140.12050924334164L236.79999999999995,141.9704872290277L239.6,143.68913513038197L242.4,145.28079842865733L245.2,146.75030810010463L247.99999999999997,148.10288744907888L250.79999999999995,149.3440634811341L253.6,150.4795836219393L256.3999999999999,151.51533841812667L259.2,152.45729069174138L261.99999999999994,153.31141146374713L264.79999999999995,154.08362281650102L267.59999999999997,154.77974773218097L270.4,155.40546682525692L273.2,155.96628178318653L275.99999999999994,156.46748524106772L278.79999999999995,156.9141367430618L281.6,157.31104438570458L284.4,157.66275169512616L287.2,157.9735292608093L290,158.24737063173887L292.79999999999995,158.48799197537022L295.6,158.69883500442137L298.4,158.88307268965588L301.2,159.0436172971502L303.99999999999994,159.18313031463074L306.79999999999995,159.30403386198236L309.59999999999997,159.40852321471849L312.4,159.4985801049077L315.2,159.57598650074462L317.99999999999994,159.6423386027258L320.79999999999995,159.69906083047175L323.6,159.74741960898365L326.4,159.78853679602412L329.2,159.82340262297106L332,159.85288804963827L334.79999999999995,159.87775645900143L336,159.88716938164242L336,160L135.99999999999997,160">
    </path>
    <path class="curve-noise" fill="none" stroke-width="8" stroke="rgb(38, 38, 38)" d="M0,149.84331141258644L2.79999999999999,148.64813028920594L5.600000000000005,147.3439866914015L8.399999999999995,145.9252492862633L11.20000000000001,144.38655405466153L14,142.7228907157798L16.79999999999999,140.92969405797885L19.600000000000005,139.0029392721035L22.399999999999995,136.93924021241025L25.20000000000001,134.73594934371386L28,132.3912579755163L30.79999999999999,129.9042952393962L33.60000000000001,127.27522413952701L36.4,124.50533290257422L39.20000000000001,121.59711977696459L42,118.55436938691466L44.79999999999999,115.38221873748472L47.60000000000001,112.08721099656162L50.4,108.67733525058574L53.20000000000001,105.16205054470163L56,101.55229267551299L58.800000000000004,97.86046240537186L61.60000000000001,94.10039400960807L64.4,90.28730334958382L67.20000000000002,86.43771498104542L70,82.56936815387412L72.8,78.7011019298595L75.60000000000001,74.85272003239844L78.4,71.0448364380811L81.20000000000002,67.29870311632551L84,63.636021710462586L86.80000000000001,60.078741322636375L89.6,56.64884490626741L92.4,53.368127074624105L95.20000000000002,50.25796639379713L98,47.33909543542417L100.8,44.63137201227266L103.60000000000001,42.153555102936515L106.40000000000002,39.92308898657985L109.2,37.955899052632276L112,36.26620262308825L114.80000000000003,34.866337927854104L117.60000000000001,33.76661410947554L120.4,32.97518480735622L123.20000000000002,32.49794748967551L126,32.33847027154154L128.8,32.49794748967551L131.6,32.97518480735622L134.40000000000003,33.766614109475555L137.20000000000002,34.86633792785412L140,36.26620262308825L142.8,37.95589905263229L145.6,39.92308898657987L148.4,42.15355510293655L151.20000000000002,44.63137201227266L154,47.33909543542417L156.8,50.25796639379717L159.60000000000002,53.36812707462413L162.40000000000003,56.648844906267435L165.20000000000002,60.07874132263641L168,63.636021710462586L170.80000000000004,67.29870311632554L173.60000000000002,71.04483643808112L176.4,74.85272003239848L179.2,78.70110192985953L182,82.56936815387412L184.8,86.43771498104545L187.6,90.28730334958382L190.40000000000003,94.1003940096081L193.20000000000002,97.86046240537186L196,101.55229267551299L198.8,105.16205054470166L201.6,108.67733525058574L204.40000000000003,112.08721099656167L207.20000000000002,115.38221873748472L210,118.55436938691466L212.80000000000004,121.59711977696462L215.60000000000002,124.50533290257422L218.4,127.27522413952705L221.2,129.9042952393962L224,132.3912579755163L226.79999999999998,134.73594934371386L229.60000000000005,136.93924021241028L232.40000000000003,139.0029392721035L235.20000000000002,140.92969405797885L238,142.7228907157798L240.8,144.38655405466153L243.60000000000002,145.9252492862633L246.40000000000003,147.34398669140154L249.20000000000002,148.64813028920594L252,149.84331141258644L254.79999999999998,150.93534792268764L257.6,151.93016962713781L260.40000000000003,152.83375030565028L263.2,153.65204659462552L266,154.39094384205805L268.80000000000007,155.05620891699354L271.6,155.6534498452206L274.40000000000003,156.18808204556635L277.20000000000005,156.66530085938479L280,157.09005999949088L282.80000000000007,157.46705549344642L285.6,157.80071465900352L288.40000000000003,158.09518962567174L291.2,158.35435490462274L294,158.58180850817985L296.8,158.78087612856902L299.6,158.95461790201603L302.40000000000003,159.10583730723857L305.2,159.23709177553124L308,159.35070462166408L310.80000000000007,159.4487779395028L313.6,159.53320614250663L316.40000000000003,159.60568986608865L319.20000000000005,159.66774998538835L322,159.72074153758535L324.80000000000007,159.7658673718943L327.6,159.8041913823636L330.40000000000003,159.83665120820984L333.2,159.86407031342375L336,159.88716938164242">
    </path>
    <path class="curve-m" fill="#ff7f00" fill-opacity="0.5" stroke="none" d="M0,159.88716938164242L2.79999999999999,159.86407031342375L5.600000000000005,159.83665120820984L8.399999999999995,159.8041913823636L11.20000000000001,159.7658673718943L14,159.72074153758535L16.79999999999999,159.66774998538835L19.600000000000005,159.60568986608862L22.399999999999995,159.53320614250663L25.20000000000001,159.4487779395028L28,159.35070462166408L30.79999999999999,159.23709177553124L33.60000000000001,159.10583730723857L36.4,158.95461790201603L39.20000000000001,158.78087612856902L42,158.58180850817985L44.79999999999999,158.35435490462274L47.60000000000001,158.09518962567174L50.4,157.80071465900352L53.20000000000001,157.46705549344642L56,157.09005999949088L58.800000000000004,156.66530085938479L61.60000000000001,156.18808204556635L64.4,155.6534498452206L67.20000000000002,155.05620891699354L70,154.39094384205805L72.8,153.65204659462552L75.60000000000001,152.83375030565028L78.4,151.9301696271378L81.20000000000002,150.93534792268764L84,149.84331141258644L86.80000000000001,148.64813028920594L89.6,147.3439866914015L92.4,145.9252492862633L95.20000000000002,144.38655405466153L98,142.7228907157798L100.8,140.92969405797885L103.60000000000001,139.0029392721035L106.40000000000002,136.93924021241025L109.2,134.73594934371386L112,132.3912579755163L114.80000000000003,129.90429523939616L117.60000000000001,127.27522413952701L120.4,124.50533290257422L123.20000000000002,121.59711977696459L126,118.55436938691466L128.8,115.38221873748469L131.6,112.08721099656162L134.40000000000003,108.6773352505857L135.99999999999997,106.68084071195516L135.99999999999997,160L0,160">
    </path>
    <path class="curve-h" fill="#4daf4a" fill-opacity="0.5" stroke="none" d="M135.99999999999997,106.68084071195516L138.79999999999995,103.11013780424719L141.59999999999997,99.45187005551149L144.39999999999995,95.71926252802984L147.2,91.9269466706588L149.99999999999997,88.09089645050645L152.79999999999995,84.22834339354924L155.59999999999997,80.35767059952786L158.39999999999995,76.49828617749064L161.19999999999996,72.67047694167348L163.99999999999997,68.89524360463548L166.79999999999995,65.1941190967849L169.59999999999997,61.58897201937185L172.39999999999995,58.101797592352256L175.2,54.75449878007996L177.99999999999997,51.56866055782803L180.79999999999995,48.565320512652605L183.6,45.76473914601466L186.39999999999998,43.18617335697459L189.19999999999996,40.84765662916914L191.99999999999994,38.76578941921892L194.79999999999995,36.95554314743639L197.59999999999997,35.430081024207034L200.4,34.200598709490535L203.2,33.27618750259113L205.99999999999997,32.66372240041985L208.79999999999995,32.36777695221619L211.59999999999997,32.39056638578617L214.39999999999998,32.731919994575875L217.2,33.38928326705569L219.99999999999997,34.35774972125893L222.79999999999995,35.63012188952263L225.6,37.197000393107814L228.39999999999998,39.0468995646914L231.19999999999996,41.16638762932656L233.99999999999994,43.54024905104522L236.79999999999995,46.151666301312616L239.6,48.98241801412881L242.4,52.01309026621425L245.2,55.22329756322318L247.99999999999997,58.59191002633523L250.79999999999995,62.09728325812616L253.6,65.71748742080317L256.3999999999999,69.43053218052953L259.2,73.21458435394277L261.99999999999994,77.0481753310166L264.79999999999995,80.91039563490273L267.59999999999997,84.78107430616885L270.4,88.64094115711998L273.2,92.47177032244367L275.99999999999994,96.2565039259121L278.79999999999995,99.97935508008312L281.6,103.62588982800406L284.4,107.183088014552L287.2,110.63938343272689L290,113.9846839203621L292.79999999999995,117.21037237978827L295.6,120.30928995257989L298.4,123.27570280040308L301.2,126.10525411913L303.99999999999994,128.79490314592888L306.79999999999995,131.34285300820875L309.59999999999997,133.7484693103612L312.4,136.01219136137274L315.2,138.13543791654195L317.99999999999994,140.12050924334164L320.79999999999995,141.9704872290277L323.6,143.68913513038197L326.4,145.28079842865733L329.2,146.75030810010463L332,148.10288744907888L334.79999999999995,149.3440634811341L336,149.84331141258644L336,160L135.99999999999997,160">
    </path>
    <path class="curve-signal" fill="none" stroke-width="8" stroke="rgb(38, 38, 38)" d="M0,159.88716938164242L2.79999999999999,159.86407031342375L5.600000000000005,159.83665120820984L8.399999999999995,159.8041913823636L11.20000000000001,159.7658673718943L14,159.72074153758535L16.79999999999999,159.66774998538835L19.600000000000005,159.60568986608862L22.399999999999995,159.53320614250663L25.20000000000001,159.4487779395028L28,159.35070462166408L30.79999999999999,159.23709177553124L33.60000000000001,159.10583730723857L36.4,158.95461790201603L39.20000000000001,158.78087612856902L42,158.58180850817985L44.79999999999999,158.35435490462274L47.60000000000001,158.09518962567174L50.4,157.80071465900352L53.20000000000001,157.46705549344642L56,157.09005999949088L58.800000000000004,156.66530085938479L61.60000000000001,156.18808204556635L64.4,155.6534498452206L67.20000000000002,155.05620891699354L70,154.39094384205805L72.8,153.65204659462552L75.60000000000001,152.83375030565028L78.4,151.9301696271378L81.20000000000002,150.93534792268764L84,149.84331141258644L86.80000000000001,148.64813028920594L89.6,147.3439866914015L92.4,145.9252492862633L95.20000000000002,144.38655405466153L98,142.7228907157798L100.8,140.92969405797885L103.60000000000001,139.0029392721035L106.40000000000002,136.93924021241025L109.2,134.73594934371386L112,132.3912579755163L114.80000000000003,129.90429523939616L117.60000000000001,127.27522413952701L120.4,124.50533290257422L123.20000000000002,121.59711977696459L126,118.55436938691466L128.8,115.38221873748469L131.6,112.08721099656162L134.40000000000003,108.6773352505857L137.20000000000002,105.16205054470163L140,101.55229267551299L142.8,97.86046240537183L145.6,94.10039400960807L148.4,90.2873033495838L151.20000000000002,86.43771498104542L154,82.56936815387412L156.8,78.70110192985949L159.60000000000002,74.85272003239844L162.40000000000003,71.04483643808109L165.20000000000002,67.29870311632551L168,63.636021710462586L170.80000000000004,60.078741322636375L173.60000000000002,56.64884490626741L176.4,53.36812707462407L179.2,50.25796639379713L182,47.33909543542417L184.8,44.63137201227262L187.6,42.153555102936515L190.40000000000003,39.92308898657985L193.20000000000002,37.955899052632276L196,36.26620262308825L198.8,34.866337927854104L201.6,33.76661410947554L204.40000000000003,32.97518480735622L207.20000000000002,32.49794748967551L210,32.33847027154154L212.80000000000004,32.49794748967551L215.60000000000002,32.97518480735622L218.4,33.766614109475555L221.2,34.86633792785412L224,36.26620262308825L226.79999999999998,37.955899052632276L229.60000000000005,39.923088986579884L232.40000000000003,42.15355510293655L235.20000000000002,44.63137201227266L238,47.33909543542417L240.8,50.25796639379713L243.60000000000002,53.36812707462414L246.40000000000003,56.648844906267435L249.20000000000002,60.07874132263641L252,63.636021710462586L254.79999999999998,67.29870311632551L257.6,71.04483643808118L260.40000000000003,74.85272003239848L263.2,78.70110192985953L266,82.56936815387412L268.80000000000007,86.43771498104549L271.6,90.28730334958385L274.40000000000003,94.1003940096081L277.20000000000005,97.86046240537186L280,101.55229267551299L282.80000000000007,105.1620505447017L285.6,108.67733525058576L288.40000000000003,112.08721099656167L291.2,115.38221873748472L294,118.55436938691466L296.8,121.59711977696466L299.6,124.50533290257425L302.40000000000003,127.27522413952705L305.2,129.9042952393962L308,132.3912579755163L310.80000000000007,134.7359493437139L313.6,136.93924021241028L316.40000000000003,139.0029392721035L319.20000000000005,140.92969405797885L322,142.7228907157798L324.80000000000007,144.38655405466153L327.6,145.9252492862633L330.40000000000003,147.34398669140154L333.2,148.64813028920594L336,149.84331141258644">
    </path>
    <line class="line" stroke-width="8" stroke="rgb(38, 38, 38)" x1="135.99999999999997" y1="160" x2="135.99999999999997" y2="-12.800000000000011">
    </line>
    <circle class="handle" r="16" fill="rgb(38, 38, 38)" cx="135.99999999999997" cy="-12.800000000000011">
    </circle>
  </g>
</svg>
