<svg class="main" version="1.1" xmlns="http://www.w3.org/2000/svg" viewBox="0 0 240 240">
  <rect class="background" fill="rgb(230, 230, 230)" stroke="none" height="240" width="240">
  </rect>
  <line class="diagonal" stroke="rgb(38, 38, 38)" stroke-dasharray="16" stroke-width="4" x1="0" y1="240" x2="240" y2="0">
  </line>
  <line class="line-p above" stroke="#377eb8" stroke-width="8" x1="145" x2="145" y1="144.82264644085487" y2="0">
  </line>
  <line class="line-p below" stroke="#377eb8" stroke-width="8" x1="145" x2="145" y1="144.82264644085487" y2="240">
  </line>
  <line class="line-w before" stroke="#984ea3" stroke-width="8" x1="0" x2="145" y1="144.82264644085487" y2="144.82264644085487">
  </line>
  <line class="line-w after" stroke="#984ea3" stroke-width="8" x1="240" x2="145" y1="144.82264644085487" y2="144.82264644085487">
  </line>
  <path class="curve interactive" fill="none" stroke-width="8" stroke="rgb(38, 38, 38)" d="M0,240L1,226.5328503504144L2,221.7386170038605L3,218.32353184583906L4,215.6036153087162L5,213.3172726309088L6,211.33196637080317L7,209.56988839267035L8,207.98092241903586L9,206.53064594789134L10,205.19426911953508L11,203.95327670049772L12,202.79343379975177L13,201.70353530781514L14,200.67458659445455L15,199.69924702214905L16,198.77144035256154L17,197.8860748723455L18,197.0388378205559L19,196.22604143940757L20,195.44450570455788L21,194.69146763692473L22,193.96451021916215L23,193.26150599998573L24,192.5805718593018L25,191.92003236322785L26,191.278389807655L27,190.65429952549005L28,190.0465493768122L29,189.4540425930339L30,188.87578333278518L31.000000000000004,188.31086444712415L32,187.75845705763322L33,187.21780163201035L34,186.6882003043288L35,186.16901023584762L36,185.65963785047805L37,185.15953380923222L38,184.66818861204172L39,184.18512873461714L40,183.7099132235725L41,183.24213068565288L42,182.78139661719646L43,182.32735102839956L44,181.8796563239096L45,181.43799540703L46,181.00206997961158L47,180.57159901370727L48,180.14631737442488L49,179.72597457623925L50,179.31033365741519L51,178.89917015922055L52,178.49227119833375L53,178.08943462232574L54,177.6904682393565L55,177.29518911431438L56,176.90342292455966L57,176.5150033692437L58,176.12977162687363L59,175.74757585640373L60,175.36827073766187L61,174.99171704738524L62.00000000000001,174.6177812675421L63,174.2463352229731L64,173.87725574569782L65,173.51042436350673L66,173.14572701070222L67,172.78305375906677L68,172.42229856732666L69,172.0633590475481L70,171.7061362470542L71,171.3505344445831L72,170.99646095952818L73,170.6438259732075L74,170.29254236120548L75,169.94252553591477L76,169.5936932984833L77,169.24596569944114L78,168.8992649073428L79,168.55351508481758L80,168.20864227147106L81,167.86457427312547L82,167.52124055692943L83,167.17857215190386L84,166.83650155452537L85,166.49496263897848L86,166.1538905717375L87,165.81322173016164L88,165.47289362481308L89,165.1328448252264L90,164.79301488887816L91,164.45334429312206L92,164.11377436987206L93,163.77424724282915L94,163.43470576706153L95,163.09509347076L96,162.7553544990006L97,162.41543355935767L98,162.07527586921918L99,161.73482710466394L100,161.3940333507689L101,161.0528410532216L102,160.71119697111794L103,160.369048130832L104,160.02634178085117L105,159.6830253474708L106,159.33904639125035L107,158.9943525641359L108,158.64889156715472L109,158.30261110859448L110,157.95545886257878L111,157.60738242795483L112,157.25832928741048L113,156.9082467667386L114,156.55708199416947L115,156.20478185969063L116,155.8512929742771L117,155.4965616289523L118,155.14053375360126L119,154.78315487545905L120,154.42437007719286L121,154.06412395449988L122,153.70236057313878L122.99999999999999,153.33902342531198L124.00000000000001,152.97405538531567L125.00000000000001,152.60739866437015L126,152.23899476454233L127,151.8687844316693L128,151.49670760718897L129,151.12270337877925L130,150.74670992970545L131,150.36866448677046L132,149.98850326675662L133,149.6061614212462L134,149.2215729796983L135,148.83467079065713L136,148.44538646095856L137,148.0536502927946L138,147.65939121848928L139,147.26253673282883L140,146.86301282278313L141,146.46074389444146L142,146.05565269697922L143,145.6476602434578L144,145.23668572824806L145,144.82264644085487L146,144.40545767590473L147,143.98503263904277L148,143.56128234846764L149,143.13411553181447L150,142.70343851807544L151,142.26915512422408L152,141.83116653618742L153,141.3893711837805L154,140.94366460919196L155,140.4939393285756L156,140.04008468626972L157,139.58198670112793L158,139.11952790440452L159,138.65258716859188L160,138.18103952655855L161,137.70475598028275L162,137.22360329841675L163,136.73744380185158L164,136.24613513638113L165,135.7495300314852L166,135.24747604416336L167,134.7398152866568L168,134.22638413678723L169,133.70701292952654L170,133.18152562827845L171,132.64973947420992L172,132.1114646118099L173,131.56650368867216L174,131.0146514273016L175,130.45569416651995L176,129.8894093697971L177,129.31556509755828L178,128.7339194402007L179,128.1442199082052L180,127.54620277533256L181,126.93959237044558L182,126.32410031299774L183,125.6994246866551L184,125.06524914487407L185,124.42124194151887L186,123.76705487876609L187,123.10232216358554L188,122.42665916299103L189,121.7396610469974L190,121.0409013067748L191,120.32993013382324L192,119.60627264406226L193,118.8694269284973L194,118.11886190952123L195,117.35401497888148L196,116.57428938979244L197,115.77905137150942L198,114.96762692977435L199,114.13929829074308L200,113.29329993912258L201,112.42881419304568L202,111.54496624840733L203,110.64081861360029L204,109.71536484137326L205,108.76752244729425L206,107.79612488329292L207,106.79991240902258L208,105.77752167207996L209,104.72747376883919L210,103.64816050868116L211,102.53782854292758L212,101.39456094209844L213,100.21625570618167L214,99.00060056562326L215,97.74504326637279L216,96.44675631758699L217,95.10259489732503L218,93.709046233911L219,92.26216827138822L220,90.75751473224432L221,89.19004272858446L222,87.55399772215354L223,85.8427687061957L224,84.04870368276215L225,82.16287136276549L226,80.17474873910864L227,78.07180444532467L228,75.83893228185428L229,73.45766373245097L230,70.90504467873258L231,68.1519839032592L232,65.16073582702147L233,61.88089191638873L234,58.24264068970139L235,54.14462009877295L236,49.42990729651291L237,43.83199553144852L238,36.82651913254661L239,27.047120927437184L240,0">
  </path>
  <g class="point interactive" tabindex="0" transform="translate(145,144.82264644085487)">
    <circle class="circle" r="20" fill="rgb(38, 38, 38)">
    </circle>
  </g>
</svg>
