<svg xmlns="http://www.w3.org/2000/svg" class="main" viewBox="0 0 200 200"><path fill="#E6E6E6" d="M0 0h200v200H0z" class="background"/><g class="plot" transform="translate(-68 40)"><path fill="#e41a1c" fill-opacity=".5" d="m0 149.843 2.8-1.195 2.8-1.304 2.8-1.419 2.8-1.538 2.8-1.664 2.8-1.793 2.8-1.927 2.8-2.064 2.8-2.203 2.8-2.345 2.8-2.487 2.8-2.629 2.8-2.77 2.8-2.908 2.8-3.043 2.8-3.172 2.8-3.295 2.8-3.41 2.8-3.515 2.8-3.61 2.8-3.692 2.8-3.76 2.8-3.813 2.8-3.85L70 82.57l2.8-3.868 2.8-3.848 2.8-3.808 2.8-3.746 2.8-3.663 2.8-3.557 2.8-3.43 2.8-3.28 2.8-3.111 2.8-2.919 2.8-2.708 2.8-2.477 2.8-2.23 2.8-1.968 2.8-1.69 2.8-1.4 2.8-1.1 2.8-.79 2.8-.478 2.8-.16 2.8.16 2.8.477 2.8.792 1.6.59V160H0" class="curve-cr"/><path fill="#377eb8" fill-opacity=".5" d="m136 34.358 2.8 1.272 2.8 1.567 2.8 1.85 2.8 2.12 2.8 2.373 2.8 2.612 2.8 2.83 2.8 3.031 2.8 3.21 2.8 3.369 2.8 3.505 2.8 3.62 2.8 3.714 2.8 3.784 2.8 3.833 2.8 3.862 2.8 3.871 2.8 3.86 2.8 3.83 2.8 3.786 2.8 3.722 2.8 3.647 2.8 3.557 2.8 3.456 2.8 3.346 2.8 3.225 2.8 3.1 2.8 2.966 2.8 2.83 2.8 2.689 2.8 2.548 2.8 2.405 2.8 2.264 2.8 2.123 2.8 1.986 2.8 1.85 2.8 1.718 2.8 1.592 2.8 1.47 2.8 1.352 2.8 1.241 2.8 1.136 2.8 1.035 2.8.942 2.8.854 2.8.773 2.8.696 2.8.625 2.8.561 2.8.501 2.8.447 2.8.397 2.8.352 2.8.31 2.8.274 2.8.241 2.8.21 2.8.185 2.8.16 2.8.14 2.8.121 2.8.105 2.8.09 2.8.077 2.8.066 2.8.057 2.8.048 2.8.042 2.8.034 2.8.03 2.8.025 1.2.01V160H136" class="curve-fa"/><path fill="none" stroke="#262626" stroke-width="8" d="m0 149.843 2.8-1.195 2.8-1.304 2.8-1.419 2.8-1.538 2.8-1.664 2.8-1.793 2.8-1.927 2.8-2.064 2.8-2.203 2.8-2.345 2.8-2.487 2.8-2.629 2.8-2.77 2.8-2.908 2.8-3.043 2.8-3.172 2.8-3.295 2.8-3.41 2.8-3.515 2.8-3.61 2.8-3.692 2.8-3.76 2.8-3.813 2.8-3.85L70 82.57l2.8-3.868 2.8-3.848 2.8-3.808 2.8-3.746 2.8-3.663 2.8-3.557 2.8-3.43 2.8-3.28 2.8-3.111 2.8-2.919 2.8-2.708 2.8-2.477 2.8-2.23 2.8-1.968 2.8-1.69 2.8-1.4 2.8-1.1 2.8-.79 2.8-.478 2.8-.16 2.8.16 2.8.477 2.8.792 2.8 1.1 2.8 1.4 2.8 1.689 2.8 1.967 2.8 2.23 2.8 2.478 2.8 2.708 2.8 2.919 2.8 3.11 2.8 3.28 2.8 3.43 2.8 3.558 2.8 3.663 2.8 3.746 2.8 3.808 2.8 3.848 2.8 3.868 2.8 3.869 2.8 3.85 2.8 3.812 2.8 3.76 2.8 3.692 2.8 3.61 2.8 3.515 2.8 3.41 2.8 3.295 2.8 3.172 2.8 3.043 2.8 2.908 2.8 2.77 2.8 2.63 2.8 2.486 2.8 2.345 2.8 2.203 2.8 2.064 2.8 1.927 2.8 1.793 2.8 1.664 2.8 1.538 2.8 1.419 2.8 1.304 2.8 1.195 2.8 1.092 2.8.995 2.8.904 2.8.818 2.8.739 2.8.665 2.8.597 2.8.535 2.8.477 2.8.425 2.8.377 2.8.334 2.8.294 2.8.26 2.8.227 2.8.199 2.8.174 2.8.15 2.8.132 2.8.114 2.8.098 2.8.084 2.8.073 2.8.062 2.8.053 2.8.045 2.8.038 2.8.033 2.8.027 2.8.023" class="curve-noise"/><path fill="#ff7f00" fill-opacity=".5" d="m0 159.887 2.8-.023 2.8-.027 2.8-.033 2.8-.038 2.8-.045 2.8-.053 2.8-.062 2.8-.073 2.8-.084 2.8-.098 2.8-.114 2.8-.131 2.8-.151 2.8-.174 2.8-.2 2.8-.227 2.8-.259 2.8-.294 2.8-.334 2.8-.377 2.8-.425 2.8-.477 2.8-.535 2.8-.597 2.8-.665 2.8-.739 2.8-.818 2.8-.904 2.8-.995 2.8-1.092 2.8-1.195 2.8-1.304 2.8-1.419 2.8-1.538 2.8-1.664 2.8-1.793 2.8-1.927 2.8-2.064 2.8-2.203 2.8-2.345 2.8-2.487 2.8-2.629 2.8-2.77 2.8-2.908 2.8-3.043 2.8-3.172 2.8-3.295 2.8-3.41 1.6-1.996V160H0" class="curve-m"/><path fill="#4daf4a" fill-opacity=".5" d="m136 106.68 2.8-3.57 2.8-3.658 2.8-3.733 2.8-3.792 2.8-3.836 2.8-3.863 2.8-3.87 2.8-3.86 2.8-3.828 2.8-3.775 2.8-3.7 2.8-3.606 2.8-3.487 2.8-3.348 2.8-3.185 2.8-3.004 2.8-2.8 2.8-2.579 2.8-2.338 2.8-2.082 2.8-1.81 2.8-1.526 2.8-1.23 2.8-.924 2.8-.612 2.8-.296 2.8.023 2.8.34 2.8.658 2.8.969 2.8 1.272 2.8 1.567 2.8 1.85 2.8 2.12 2.8 2.373 2.8 2.612 2.8 2.83 2.8 3.031 2.8 3.21 2.8 3.369 2.8 3.505 2.8 3.62 2.8 3.714 2.8 3.784 2.8 3.833 2.8 3.862 2.8 3.871 2.8 3.86 2.8 3.83 2.8 3.786 2.8 3.722 2.8 3.647 2.8 3.557 2.8 3.456 2.8 3.346 2.8 3.225 2.8 3.1 2.8 2.966 2.8 2.83 2.8 2.689 2.8 2.548 2.8 2.405 2.8 2.264 2.8 2.123 2.8 1.986 2.8 1.85 2.8 1.718 2.8 1.592 2.8 1.47 2.8 1.352 2.8 1.241 1.2.5V160H136" class="curve-h"/><path fill="none" stroke="#262626" stroke-width="8" d="m0 159.887 2.8-.023 2.8-.027 2.8-.033 2.8-.038 2.8-.045 2.8-.053 2.8-.062 2.8-.073 2.8-.084 2.8-.098 2.8-.114 2.8-.131 2.8-.151 2.8-.174 2.8-.2 2.8-.227 2.8-.259 2.8-.294 2.8-.334 2.8-.377 2.8-.425 2.8-.477 2.8-.535 2.8-.597 2.8-.665 2.8-.739 2.8-.818 2.8-.904 2.8-.995 2.8-1.092 2.8-1.195 2.8-1.304 2.8-1.419 2.8-1.538 2.8-1.664 2.8-1.793 2.8-1.927 2.8-2.064 2.8-2.203 2.8-2.345 2.8-2.487 2.8-2.629 2.8-2.77 2.8-2.908 2.8-3.043 2.8-3.172 2.8-3.295 2.8-3.41 2.8-3.515 2.8-3.61 2.8-3.692 2.8-3.76 2.8-3.813 2.8-3.85 2.8-3.868 2.8-3.868 2.8-3.848 2.8-3.808 2.8-3.746 2.8-3.663 2.8-3.557 2.8-3.43 2.8-3.28 2.8-3.111 2.8-2.919 2.8-2.708 2.8-2.477 2.8-2.23 2.8-1.968 2.8-1.69 2.8-1.4 2.8-1.1 2.8-.79 2.8-.478 2.8-.16 2.8.16 2.8.477 2.8.792 2.8 1.1 2.8 1.4 2.8 1.689 2.8 1.967 2.8 2.23 2.8 2.478 2.8 2.708 2.8 2.919 2.8 3.11 2.8 3.28 2.8 3.43 2.8 3.558 2.8 3.663 2.8 3.746 2.8 3.808 2.8 3.848 2.8 3.868 2.8 3.869 2.8 3.85 2.8 3.812 2.8 3.76 2.8 3.692 2.8 3.61 2.8 3.515 2.8 3.41 2.8 3.295 2.8 3.172 2.8 3.043 2.8 2.908 2.8 2.77 2.8 2.63 2.8 2.486 2.8 2.345 2.8 2.203 2.8 2.064 2.8 1.927 2.8 1.793 2.8 1.664 2.8 1.538 2.8 1.419 2.8 1.304 2.8 1.195" class="curve-signal"/><path stroke="#262626" stroke-width="8" d="M136 160V-12.8" class="line"/><circle cx="136" cy="-12.8" r="16" fill="#262626" class="handle"/></g></svg>