<svg xmlns="http://www.w3.org/2000/svg" class="main" viewBox="0 0 240 240"><path fill="#E6E6E6" d="M0 0h240v240H0z" class="background"/><path stroke="#262626" stroke-dasharray="16" stroke-width="4" d="M0 240 240 0" class="diagonal"/><path stroke="#377eb8" stroke-width="8" d="M145 144.823V0" class="line-p above"/><path stroke="#377eb8" stroke-width="8" d="M145 144.823V240" class="line-p below"/><path stroke="#984ea3" stroke-width="8" d="M0 144.823h145" class="line-w before"/><path stroke="#984ea3" stroke-width="8" d="M240 144.823h-95" class="line-w after"/><path fill="none" stroke="#262626" stroke-width="8" d="m0 240 1-13.467 1-4.794 1-3.415 1-2.72 1-2.287 1-1.985 1-1.762 1-1.59 1-1.45 1-1.336 1-1.24 1-1.16 1-1.09 1-1.03 1-.975 1-.928 1-.885 1-.847 1-.813 1-.781 1-.754 1-.726 1-.703 1-.681 1-.661 1-.642 1-.624 1-.607 1-.593 1-.578 1-.565 1-.553 1-.54 1-.53 1-.519 1-.51 1-.5 1-.49 1-.484 1-.475 1-.468 1-.46 1-.455 1-.447 1-.442 1-.436 1-.43 1-.426 1-.42 1-.416 1-.41 1-.408 1-.403 1-.399 1-.395 1-.392 1-.388 1-.385 1-.382 1-.38 1-.376 1-.374 1-.372 1-.369 1-.367 1-.364 1-.363 1-.36 1-.36 1-.357 1-.355 1-.355 1-.352 1-.351 1-.35 1-.35 1-.347 1-.347 1-.345 1-.345 1-.344 1-.344 1-.342 1-.342 1-.342 1-.341 1-.34 1-.341 1-.34 1-.34 1-.34 1-.34 1-.339 1-.34 1-.339 1-.34 1-.34 1-.34 1-.34 1-.341 1-.341 1-.342 1-.342 1-.343 1-.343 1-.344 1-.345 1-.345 1-.346 1-.348 1-.348 1-.349 1-.35 1-.35 1-.353 1-.354 1-.354 1-.356 1-.358 1-.359 1-.36 1-.362 1-.363 1-.365 1-.367 1-.368 1-.37 1-.372 1-.374 1-.376 1-.378 1-.38 1-.383 1-.384 1-.387 1-.39 1-.391 1-.395 1-.396 1-.4 1-.402 1-.405 1-.408 1-.411 1-.414 1-.418 1-.42 1-.424 1-.427 1-.43 1-.435 1-.438 1-.442 1-.445 1-.45 1-.454 1-.458 1-.462 1-.467 1-.472 1-.476 1-.481 1-.487 1-.49 1-.497 1-.503 1-.507 1-.514 1-.519 1-.525 1-.532 1-.539 1-.544 1-.552 1-.56 1-.566 1-.573 1-.582 1-.59 1-.598 1-.606 1-.616 1-.625 1-.634 1-.644 1-.654 1-.665 1-.675 1-.687 1-.7 1-.71 1-.724 1-.737 1-.75 1-.765 1-.78 1-.795 1-.811 1-.829 1-.846 1-.864 1-.884 1-.904 1-.926 1-.947 1-.972 1-.996 1-1.022 1-1.05 1-1.08 1-1.11 1-1.143 1-1.179 1-1.215 1-1.256 1-1.298 1-1.344 1-1.394 1-1.447 1-1.504 1-1.568 1-1.636 1-1.711 1-1.794 1-1.886 1-1.988 1-2.103 1-2.233 1-2.381 1-2.553 1-2.753 1-2.991 1-3.28 1-3.638 1-4.098 1-4.715 1-5.598 1-7.005 1-9.78L240 0" class="curve interactive"/><g class="point interactive" tabindex="0" transform="translate(145 144.823)"><circle r="20" fill="#262626" class="circle"/></g></svg>