<svg class="main" version="1.1" xmlns="http://www.w3.org/2000/svg" viewBox="0 0 240 240">
  <rect class="background" fill="rgb(230, 230, 230)" stroke="none" height="240" width="240"></rect>
  <path class="curve interactive" transform="translate(-172, 60)" fill="none" stroke="rgb(38, 38, 38)" stroke-width="8" d="M352,0L351,3.076L350,6.036L349,8.887L348,11.633L347,14.282L346,16.838L345,19.306L344,21.69L343,23.994L342,26.223L341,28.38L340,30.469L339,32.493L338,34.454L337,36.356L336,38.201L335,39.991L334,41.73L333,43.42L332,45.061L331,46.657L330,48.21L329,49.72L328,51.19L327,52.622L326,54.016L325,55.374L324,56.698L323,57.989L322,59.249L321,60.477L320,61.676L319,62.846L318,63.989L317,65.105L316,66.196L315,67.262L314,68.303L313,69.322L312,70.318L311,71.293L310,72.247L309,73.18L308,74.094L307,74.989L306,75.865L305,76.723L304,77.564L303,78.389L302,79.197L301,79.989L300,80.765L299,81.527L298,82.274L297,83.008L296,83.727L295,84.433L294,85.126L293,85.807L292,86.475L291,87.132L290,87.776L289,88.41L288,89.032L287,89.644L286,90.245L285,90.836L284,91.417L283,91.989L282,92.551L281,93.104L280,93.648L279,94.183L278,94.709L277,95.227L276,95.737L275,96.239L274,96.733L273,97.22L272,97.699L271,98.171L270,98.636L269,99.094L268,99.545L267,99.989L266,100.427L265,100.859L264,101.284L263,101.704L262,102.117L261,102.525L260,102.927L259,103.323L258,103.714L257,104.099L256,104.479L255,104.855L254,105.225L253,105.59L252,105.95L251,106.306L250,106.657L249,107.003L248,107.345L247,107.682L246,108.016L245,108.344L244,108.669L243,108.99L242,109.307L241,109.62L240,109.929L239,110.234L238,110.536L237,110.834L236,111.128L235,111.419L234,111.706L233,111.99L232,112.271L231,112.549L230,112.823L229,113.094L228,113.362L227,113.627L226,113.889L225,114.148L224,114.404L223,114.657L222,114.908L221,115.156L220,115.401L219,115.643L218,115.883L217,116.12L216,116.355L215,116.587L214,116.816L213,117.044L212,117.269L211,117.491L210,117.711L209,117.929L208,118.145L207,118.359L206,118.57L205,118.779L204,118.986L203,119.191L202,119.394L201,119.595L200,119.794L199,119.991L198,120.187L197,120.38L196,120.571L195,120.761L194,120.949L193,121.134L192,121.319L191,121.501L190,121.682L189,121.861L188,122.038L187,122.214L186,122.388L185,122.561L184,122.732L183,122.901L182,123.069L181,123.235L180,123.4L179,123.563L178,123.725L177,123.886L176,124.045L175,124.203L174,124.359L173,124.514L172,124.668L171,124.82L170,124.971L169,125.12L168,125.269L167,125.416L166,125.562L165,125.707L164,125.85L163,125.992L162,126.133L161,126.273L160,126.412L159,126.55L158,126.686L157,126.822L156,126.956L155,127.089L154,127.222L153,127.353L152,127.483L151,127.612L150,127.74L149,127.867L148,127.993L147,128.118L146,128.242L145,128.365L144,128.487L143,128.608L142,128.728L141,128.848L140,128.966L139,129.084L138,129.2L137,129.316L136,129.431L135,129.545L134,129.658L133,129.771L132,129.882L131,129.993L130,130.103L129,130.212L128,130.32L127,130.428L126,130.535L125,130.641L124,130.746L123,130.85L122,130.954L121,131.057L120,131.159L119,131.261L118,131.362L117,131.462L116,131.561L115,131.66L114,131.758L113,131.855L112,131.952L111,132.048L110,132.144L109,132.238L108,132.332L107,132.426L106,132.519L105,132.611L104,132.703L103,132.794L102,132.884L101,132.974L100,133.063L99,133.152L98,133.24L97,133.327L96,133.414L95,133.5L94,133.586L93,133.671L92,133.756L91,133.84L90,133.924L89,134.007L88,134.089L87,134.171L86,134.253L85,134.334L84,134.414L83,134.494L82,134.573L81,134.652L80,134.731L79,134.809L78,134.886L77,134.963L76,135.04L75,135.116L74,135.192L73,135.267L72,135.342L71,135.416L70,135.49L69,135.563L68,135.636L67,135.708L66,135.781L65,135.852L64,135.923L63,135.994L62,136.065L61,136.135L60,136.204L59,136.273L58,136.342L57,136.41L56,136.478L55,136.546L54,136.613L53,136.68L52,136.746L51,136.813L50,136.878L49,136.944L48,137.008L47,137.073L46,137.137L45,137.201L44,137.265L43,137.328L42,137.391L41,137.453L40,137.515L39,137.577L38,137.638L37,137.699L36,137.76L35,137.821L34,137.881L33,137.941L32,138L31,138.059L30,138.118L29,138.176L28,138.235L27,138.293L26,138.35L25,138.407L24,138.464L23,138.521L22,138.577L21,138.633L20,138.689L19,138.745L18,138.8L17,138.855L16,138.91L15,138.964L14,139.018L13,139.072L12,139.125L11,139.179L10,139.232L9,139.284L8,139.337L7,139.389L6,139.441L5,139.492L4,139.544L3,139.595L2,139.646L1,139.696"></path>
  <line class="bar interactive" stroke="rgb(38, 38, 38)" stroke-width="8" x1="180" x2="180" y1="240" y2="60"></line>
  <circle class="mark" transform="translate(180, 60)" r="20" fill="rgb(38, 38, 38)"></circle>
</svg>
