<svg class="main" xmlns="http://www.w3.org/2000/svg" viewBox="0 0 240 240"><path class="background" fill="#E6E6E6" d="M0 0h240v240H0z"/><path class="curve interactive" fill="none" stroke="#262626" stroke-width="8" d="m180 60-1 3.076-1 2.96-1 2.851-1 2.746-1 2.649-1 2.556-1 2.468-1 2.384-1 2.304-1 2.229-1 2.157-1 2.089-1 2.024-1 1.961-1 1.902-1 1.845-1 1.79-1 1.739-1 1.69-1 1.641-1 1.596-1 1.553-1 1.51-1 1.47-1 1.432-1 1.394-1 1.358-1 1.324-1 1.291-1 1.26-1 1.228-1 1.199-1 1.17-1 1.143-1 1.116-1 1.091-1 1.066-1 1.041-1 1.019-1 .996-1 .975-1 .954-1 .933-1 .914-1 .895-1 .876-1 .858-1 .841-1 .825-1 .808-1 .792-1 .776-1 .762-1 .747-1 .734-1 .719-1 .706-1 .693-1 .681-1 .668-1 .657-1 .644-1 .634-1 .622-1 .612-1 .601-1 .591-1 .581-1 .572-1 .562-1 .553-1 .544-1 .535-1 .526-1 .518-1 .51-1 .502-1 .494-1 .487-1 .479-1 .472-1 .465-1 .458-1 .451-1 .444-1 .438-1 .432-1 .425-1 .42-1 .413-1 .408-1 .402-1 .396-1 .391-1 .385-1 .38-1 .376-1 .37-1 .365-1 .36-1 .356-1 .351-1 .346-1 .342-1 .337-1 .334-1 .328-1 .325-1 .321-1 .317-1 .313-1 .309-1 .305-1 .302-1 .298-1 .294-1 .291-1 .287-1 .284-1 .281-1 .278-1 .274-1 .271-1 .268-1 .265-1 .262-1 .259-1 .256-1 .253-1 .251-1 .248-1 .245-1 .242-1 .24-1 .237-1 .235-1 .232-1 .229-1 .228-1 .225-1 .222-1 .22-1 .218-1 .216-1 .214-1 .211-1 .209-1 .207-1 .205-1 .203-1 .201-1 .199-1 .197-1 .196-1 .193-1 .191-1 .19-1 .188-1 .185-1 .185-1 .182-1 .181-1 .179-1 .177-1 .176-1 .174-1 .173-1 .171-1 .169-1 .168-1 .166-1 .165-1 .163-1 .162-1 .161-1 .159-1 .158-1 .156-1 .155-1 .154-1 .152-1 .151-1 .149-1 .149-1 .147-1 .146-1 .145-1 .143-1 .142-1 .141-1 .14-1 .139-1 .138-1 .136-1 .136-1 .134-1 .133-1 .133-1 .131-1 .13-1 .129-1 .128-1 .127-1 .126-1 .125-1 .124-1 .123-1 .122-1 .121-1 .12-1 .12-1 .118-1 .118-1 .116-1 .116-1 .115-1 .114-1 .113-1 .113-1 .111-1 .111-1 .11-1 .109-1 .108-1 .108-1 .107-1 .106-1 .105-1 .104-1 .104-1 .103-1 .102-1 .102-1 .101-1 .1-1 .099-1 .099-1 .098-1 .097-1 .097-1 .096-1 .096-1 .094-1 .094-1 .094-1 .093-1 .092-1 .092-1 .091-1 .09-1 .09-1 .089-1 .089-1 .088-1 .087-1 .087-1 .086-1 .086-1 .085-1 .085-1 .084-1 .084-1 .083-1 .082-1 .082-1 .082-1 .081-1 .08-1 .08-1 .079-1 .079-1 .079-1 .078-1 .077-1 .077-1 .077-1 .076-1 .076-1 .075-1 .075-1 .074-1 .074-1 .073-1 .073-1 .072-1 .073-1 .071-1 .071-1 .071-1 .071-1 .07-1 .069-1 .069-1 .069-1 .068-1 .068-1 .068-1 .067-1 .067-1 .066-1 .067-1 .065-1 .066-1 .064-1 .065-1 .064-1 .064-1 .064-1 .063-1 .063-1 .062-1 .062-1 .062-1 .061-1 .061-1 .061-1 .061-1 .06-1 .06-1 .059-1 .059-1 .059-1 .058-1 .059-1 .058-1 .057-1 .057-1 .057-1 .057-1 .056-1 .056-1 .056-1 .056-1 .055-1 .055-1 .055-1 .054-1 .054-1 .054-1 .053-1 .054-1 .053-1 .052-1 .053-1 .052-1 .052-1 .051-1 .052-1 .051-1 .051-1 .05"/><path class="bar interactive" stroke="#262626" stroke-width="8" d="M180 240V60"/><circle class="mark" transform="translate(180 60)" r="20" fill="#262626"/></svg>